<?xml version="1.0" standalone="no"?><!DOCTYPE svg PUBLIC "-//W3C//DTD SVG 1.1//EN" "http://www.w3.org/Graphics/SVG/1.1/DTD/svg11.dtd"><svg t="1534829192363" class="icon" style="" viewBox="0 0 1025 1024" version="1.1" xmlns="http://www.w3.org/2000/svg" p-id="664" xmlns:xlink="http://www.w3.org/1999/xlink" width="200.1953125" height="200"><defs><style type="text/css"></style></defs><path d="M546.133333 648.533333L546.133333 648.533333 546.133333 648.533333c1.024-51.9168 0 375.46666701 0 375.466667l-68.266667 0L477.866667 682.666667c0-139.912533-115.234133-238.933333-238.933333-238.933333L68.266667 443.733333c0 138.47893301 147.8656 239.991467 238.933333 238.933333 0 0 54.852267 0 102.4 0l0 68.266667L310.818133 750.933333C154.3168 750.933333 17.885867 628.73599999 0 477.866667l0 0c0 0 0-86.45973299 0-102.4l237.124267 0C394.410667 375.466667 528.6912 496.298667 546.133333 648.533333L546.133333 648.533333zM478.92480001 273.066667L478.92480001 273.066667 478.92480001 273.066667C477.9008 221.0816 477.866667 409.565867 477.866667 409.565867L546.133333 477.866667 547.054933 307.2c0-139.912533 114.9952-238.933333 238.455467-238.933333l170.325333 0c0 138.513067-147.592533 239.991467-238.455467 238.933333 0 0-54.74986699 0-102.1952 0l0 68.266667 98.577067 0c156.19413301 0 292.352-122.1632 310.237867-273.066667l0 0C1024 102.4 1024 15.940267 1024 0l-236.680533 0C630.340267 0 496.3328 120.832 478.92480001 273.066667L478.92480001 273.066667z" fill="#2ecc71" p-id="665"></path></svg>